<svg width="18" height="22" viewBox="0 0 18 22" fill="none" xmlns="http://www.w3.org/2000/svg">
<path d="M9.13843 0.274517C9.62887 0.274517 10.0342 0.638966 10.0983 1.11181L10.1072 1.24327V20.6183C10.1072 21.1533 9.67345 21.587 9.13843 21.587C8.64799 21.587 8.24267 21.2226 8.17852 20.7497L8.16968 20.6183V1.24327C8.16968 0.708241 8.6034 0.274517 9.13843 0.274517Z" fill="#413434"/>
<path d="M16.2334 12.1204C16.6109 11.7413 17.2243 11.74 17.6035 12.1175C17.9481 12.4606 17.9805 12.9988 17.7 13.3786L17.6064 13.4875L9.82541 21.3021C9.48119 21.6478 8.94113 21.6792 8.56129 21.3964L8.45249 21.3021L0.670202 13.4875C0.292666 13.1084 0.293936 12.495 0.673038 12.1175C1.01768 11.7743 1.55593 11.7441 1.9346 12.0263L2.04306 12.1203L9.13931 19.2452L16.2334 12.1204Z" fill="#413434"/>
</svg>
