<svg width="23" height="23" viewBox="0 0 23 23" fill="none" xmlns="http://www.w3.org/2000/svg">
<path fill-rule="evenodd" clip-rule="evenodd" d="M1.91666 11.5142C1.91666 6.46583 5.95124 1.9165 11.5192 1.9165C16.9625 1.9165 21.0833 6.37945 21.0833 11.4854C21.0833 17.4072 16.2533 21.0832 11.5 21.0832C9.92832 21.0832 8.18416 20.6609 6.78499 19.8355C6.29624 19.5379 5.88416 19.3172 5.35707 19.4899L3.42124 20.0658C2.93249 20.2194 2.49166 19.8355 2.63541 19.3172L3.27749 17.1673C3.38291 16.8698 3.36374 16.553 3.21041 16.3035C2.38624 14.7871 1.91666 13.1267 1.91666 11.5142ZM10.2542 11.5142C10.2542 12.1957 10.8004 12.7427 11.4808 12.7523C12.1612 12.7523 12.7075 12.1957 12.7075 11.5238C12.7075 10.8424 12.1612 10.2953 11.4808 10.2953C10.81 10.2857 10.2542 10.8424 10.2542 11.5142ZM14.6721 11.5238C14.6721 12.1957 15.2183 12.7523 15.8987 12.7523C16.5792 12.7523 17.1254 12.1957 17.1254 11.5238C17.1254 10.8424 16.5792 10.2953 15.8987 10.2953C15.2183 10.2953 14.6721 10.8424 14.6721 11.5238ZM7.06291 12.7523C6.39207 12.7523 5.83624 12.1957 5.83624 11.5238C5.83624 10.8424 6.38249 10.2953 7.06291 10.2953C7.74332 10.2953 8.28957 10.8424 8.28957 11.5238C8.28957 12.1957 7.74332 12.7427 7.06291 12.7523Z" fill="white"/>
</svg>
