<svg width="56" height="45" viewBox="0 0 56 45" fill="none" xmlns="http://www.w3.org/2000/svg">
<path opacity="0.6" fill-rule="evenodd" clip-rule="evenodd" d="M30.1563 44.0034C24.9397 44.1594 19.0063 45.2398 15.0158 42.1421C11.0598 39.0712 11.3104 33.5266 10.583 28.8095C9.98068 24.9034 10.0508 21.0819 11.1815 17.2765C12.3653 13.2928 13.9632 9.39291 17.2017 6.53522C20.7794 3.37816 25.2123 0.223457 30.1563 0.532806C35.0363 0.838152 37.8817 5.50155 41.8919 8.08012C46.0128 10.7299 51.6453 11.7223 53.9528 15.8339C56.3964 20.1881 55.9994 25.5323 54.2914 30.1743C52.597 34.7795 49.082 38.6884 44.5987 41.2573C40.3204 43.7088 35.1926 43.8528 30.1563 44.0034Z" fill="#FFBFBF"/>
<ellipse cx="15.4127" cy="21.5227" rx="13.4127" ry="13.3599" stroke="#130F26" stroke-width="3.96951" stroke-linecap="round" stroke-linejoin="round"/>
<path d="M24.7415 31.5085L30 36.7317" stroke="#130F26" stroke-width="3.96951" stroke-linecap="round" stroke-linejoin="round"/>
</svg>
