<svg width="47" height="46" viewBox="0 0 47 46" fill="none" xmlns="http://www.w3.org/2000/svg">
<path fill-rule="evenodd" clip-rule="evenodd" d="M23.5 0C10.5213 0 0 10.2975 0 23C0 35.7025 10.5213 46 23.5 46C36.4787 46 47 35.7025 47 23C47 10.2975 36.4787 0 23.5 0ZM18.3332 10.8074C19.6701 10.7479 20.0973 10.7333 23.5012 10.7333H23.4973C26.9022 10.7333 27.3278 10.7479 28.6647 10.8074C29.999 10.8672 30.9103 11.074 31.7093 11.3773C32.5344 11.6904 33.2316 12.1095 33.9288 12.7918C34.6259 13.4737 35.0542 14.1581 35.3753 14.9649C35.6834 15.7448 35.8949 16.6362 35.9576 17.9421C36.0177 19.2506 36.0333 19.6687 36.0333 23.0001C36.0333 26.3316 36.0177 26.7486 35.9576 28.0571C35.8949 29.3625 35.6834 30.2541 35.3753 31.0344C35.0542 31.8409 34.6259 32.5253 33.9288 33.2071C33.2324 33.8895 32.5341 34.3096 31.7101 34.6229C30.9126 34.9263 30.0008 35.133 28.6665 35.1928C27.3296 35.2523 26.9037 35.2669 23.4996 35.2669C20.096 35.2669 19.6691 35.2523 18.3322 35.1928C16.9981 35.133 16.0871 34.9263 15.2897 34.6229C14.4659 34.3096 13.7666 33.8895 13.0702 33.2071C12.3733 32.5253 11.9451 31.8409 11.6247 31.0341C11.315 30.2541 11.1038 29.3628 11.0424 28.0568C10.9818 26.7484 10.9667 26.3316 10.9667 23.0001C10.9667 19.6687 10.9823 19.2503 11.0421 17.9419C11.1022 16.6365 11.3137 15.7448 11.6244 14.9646C11.9456 14.1581 12.3738 13.4737 13.071 12.7918C13.7676 12.1098 14.4669 11.6906 15.2912 11.3773C16.0882 11.074 16.9989 10.8672 18.3332 10.8074Z" fill="white"/>
<path fill-rule="evenodd" clip-rule="evenodd" d="M22.3768 12.944C22.5951 12.9437 22.83 12.9438 23.0834 12.9439L23.5011 12.944C26.8476 12.944 27.2442 12.9557 28.5657 13.0145C29.7877 13.0692 30.451 13.2691 30.8928 13.437C31.4777 13.6593 31.8946 13.9251 32.3331 14.3544C32.7717 14.7837 33.0433 15.1926 33.271 15.7651C33.4425 16.197 33.647 16.8461 33.7026 18.0421C33.7627 19.3352 33.7757 19.7237 33.7757 22.9974C33.7757 26.2711 33.7627 26.6595 33.7026 27.9527C33.6467 29.1487 33.4425 29.7978 33.271 30.2297C33.0438 30.8021 32.7717 31.2098 32.3331 31.6388C31.8944 32.0682 31.4779 32.334 30.8928 32.5563C30.4515 32.725 29.7877 32.9243 28.5657 32.979C27.2445 33.0378 26.8476 33.0505 23.5011 33.0505C20.1545 33.0505 19.7578 33.0378 18.4366 32.979C17.2146 32.9238 16.5513 32.7239 16.1093 32.556C15.5244 32.3337 15.1066 32.0679 14.6679 31.6386C14.2293 31.2092 13.9577 30.8014 13.73 30.2287C13.5585 29.7968 13.354 29.1477 13.2984 27.9516C13.2383 26.6585 13.2263 26.2701 13.2263 22.9943C13.2263 19.7186 13.2383 19.3322 13.2984 18.039C13.3543 16.843 13.5585 16.1939 13.73 15.7615C13.9572 15.1891 14.2293 14.7802 14.6679 14.3508C15.1066 13.9215 15.5244 13.6557 16.1093 13.4329C16.5511 13.2642 17.2146 13.0649 18.4366 13.0099C19.5928 12.9588 20.0409 12.9435 22.3768 12.9409V12.944ZM30.1914 14.9808C29.3611 14.9808 28.6874 15.6394 28.6874 16.4523C28.6874 17.265 29.3611 17.9243 30.1914 17.9243C31.0217 17.9243 31.6954 17.265 31.6954 16.4523C31.6954 15.6396 31.0217 14.9803 30.1914 14.9803V14.9808ZM17.0647 23.0008C17.0647 19.522 19.9465 16.7015 23.5009 16.7013C27.0554 16.7013 29.9366 19.5219 29.9366 23.0008C29.9366 26.4798 27.0557 29.2991 23.5011 29.2991C19.9466 29.2991 17.0647 26.4798 17.0647 23.0008Z" fill="white"/>
<path d="M23.5012 18.9111C25.8084 18.9111 27.679 20.7417 27.679 23.0001C27.679 25.2582 25.8084 27.089 23.5012 27.089C21.1937 27.089 19.3234 25.2582 19.3234 23.0001C19.3234 20.7417 21.1937 18.9111 23.5012 18.9111Z" fill="white"/>
</svg>
