<svg width="52" height="43" viewBox="0 0 52 43" fill="none" xmlns="http://www.w3.org/2000/svg">
<path opacity="0.6" fill-rule="evenodd" clip-rule="evenodd" d="M32.0743 5.51995C35.5214 6.18128 38.982 7.16985 41.4949 9.63288C43.8089 11.9009 43.6727 15.5181 45.1975 18.3827C47.2312 22.2033 52.898 24.9294 51.8783 29.1397C50.882 33.2538 44.5822 32.7771 41.1257 35.1961C37.7819 37.5362 36.148 42.9422 32.0743 42.9995C28.0078 43.0568 26.1843 37.7756 22.8367 35.4537C19.3556 33.0393 13.2768 33.2774 12.1486 29.1795C11.0081 25.0368 16.7665 22.1886 18.0563 18.0904C19.3638 13.9364 16.3872 8.33661 19.6213 5.43648C22.7969 2.58872 27.8945 4.71806 32.0743 5.51995Z" fill="#FDC5F4"/>
<path d="M24.8841 25.687H13.4524" stroke="#130F26" stroke-width="3.66545" stroke-linecap="round" stroke-linejoin="round"/>
<path d="M24.8841 19.0583H13.4524" stroke="#130F26" stroke-width="3.66545" stroke-linecap="round" stroke-linejoin="round"/>
<path d="M17.8147 12.445H13.4526" stroke="#130F26" stroke-width="3.66545" stroke-linecap="round" stroke-linejoin="round"/>
<path fill-rule="evenodd" clip-rule="evenodd" d="M25.1887 4.35376C25.1887 4.35376 13.0335 4.36009 13.0145 4.36009C8.64445 4.38701 5.93854 7.26234 5.93854 11.6482V26.2085C5.93854 30.6165 8.66504 33.5029 13.073 33.5029C13.073 33.5029 25.2267 33.4982 25.2473 33.4982C29.6173 33.4713 32.3248 30.5943 32.3248 26.2085V11.6482C32.3248 7.24018 29.5967 4.35376 25.1887 4.35376Z" stroke="#130F26" stroke-width="3.66545" stroke-linecap="round" stroke-linejoin="round"/>
</svg>
