<svg width="55" height="50" viewBox="0 0 55 50" fill="none" xmlns="http://www.w3.org/2000/svg">
<path opacity="0.6" fill-rule="evenodd" clip-rule="evenodd" d="M30.7881 13.2349C35.9591 13.0008 41.4332 7.0552 45.5809 10.0615C49.7485 13.0822 45.1944 19.9719 46.7356 24.7937C48.2398 29.4998 54.949 32.3438 54.2635 37.2261C53.5886 42.0329 48.1239 44.8595 43.6223 46.9678C39.6528 48.8269 35.1937 48.0949 30.7881 48.2205C26.21 48.351 20.8043 50.6833 17.3943 47.7156C13.9444 44.7133 16.2109 39.1201 15.2711 34.7163C14.4795 31.007 12.06 27.7818 12.334 24.0032C12.6658 19.4285 12.9156 13.7198 16.9651 11.3569C21.0526 8.97178 26.024 13.4506 30.7881 13.2349Z" fill="#BFD5FF"/>
<path fill-rule="evenodd" clip-rule="evenodd" d="M24.7709 17.9384C24.7709 15.5788 22.8588 13.6667 20.5009 13.6667C18.1412 13.6667 16.2292 15.5788 16.2292 17.9384C16.2292 20.2964 18.1412 22.2084 20.5009 22.2084C22.8588 22.2084 24.7709 20.2964 24.7709 17.9384Z" stroke="#130F26" stroke-width="3.6" stroke-linecap="round" stroke-linejoin="round"/>
<path fill-rule="evenodd" clip-rule="evenodd" d="M20.4992 35.875C18.4518 35.875 7.6875 27.1597 7.6875 18.0456C7.6875 10.9105 13.4225 5.125 20.4992 5.125C27.5758 5.125 33.3125 10.9105 33.3125 18.0456C33.3125 27.1597 22.5466 35.875 20.4992 35.875Z" stroke="#130F26" stroke-width="3.6" stroke-linecap="round" stroke-linejoin="round"/>
</svg>
