<svg width="23" height="23" viewBox="0 0 23 23" fill="none" xmlns="http://www.w3.org/2000/svg">
<path fill-rule="evenodd" clip-rule="evenodd" d="M3.35416 9.88769C3.35416 5.47948 7.03788 1.9165 11.4937 1.9165C15.9621 1.9165 19.6458 5.47948 19.6458 9.88769C19.6458 12.109 18.838 14.1713 17.5083 15.9193C16.0413 17.8474 14.2333 19.5273 12.1982 20.8459C11.7324 21.1507 11.312 21.1737 10.8008 20.8459C8.75411 19.5273 6.94607 17.8474 5.49172 15.9193C4.16106 14.1713 3.35416 12.109 3.35416 9.88769ZM8.81113 10.1373C8.81113 11.6143 10.0162 12.776 11.4937 12.776C12.9722 12.776 14.1889 11.6143 14.1889 10.1373C14.1889 8.67179 12.9722 7.45358 11.4937 7.45358C10.0162 7.45358 8.81113 8.67179 8.81113 10.1373Z" fill="white"/>
</svg>
