<svg width="1214" height="1409" viewBox="0 0 1214 1409" fill="none" xmlns="http://www.w3.org/2000/svg">
<path fill-rule="evenodd" clip-rule="evenodd" d="M379.098 0.00245488C517.365 0.680235 607.944 136.417 724.773 210.373C852.727 291.37 1015.45 324.796 1095.38 453.421C1185.82 598.965 1257.67 793.177 1182.67 947.252C1107.69 1101.31 891.804 1103.34 740.195 1183.16C617.221 1247.91 515.448 1343.45 379.098 1370.35C217.388 1402.25 30.067 1446.97 -102.828 1349.47C-235.674 1252 -216.828 1053.03 -267.223 896.156C-317.389 740.002 -462.052 584.539 -396.925 434.008C-331.205 282.105 -113.502 287.76 30.9514 206.971C151.738 139.419 240.706 -0.675935 379.098 0.00245488Z" fill="#EF906E"/>
</svg>
