<svg width="61" height="47" viewBox="0 0 61 47" fill="none" xmlns="http://www.w3.org/2000/svg">
<path fill-rule="evenodd" clip-rule="evenodd" d="M33.9727 0.0910603C38.5115 0.548158 42.0657 3.75127 45.6863 6.55002C49.2055 9.27042 52.3086 12.2278 54.6149 16.0476C57.5706 20.9431 61.9473 25.9944 60.818 31.612C59.6752 37.2965 54.4591 41.7835 49.0472 43.7428C44.1385 45.52 39.171 40.9071 33.9727 41.3312C27.9535 41.8222 22.3655 49.1822 17.0161 46.3558C11.8805 43.6422 13.0632 35.7054 12.343 29.9025C11.7577 25.186 11.8361 20.5556 13.2514 16.0217C14.6785 11.45 16.6478 6.9116 20.4268 4.00622C24.2562 1.06216 29.1817 -0.391424 33.9727 0.0910603Z" fill="#FEF7DC"/>
<path fill-rule="evenodd" clip-rule="evenodd" d="M22.9324 10.3098L26.1304 16.6986C26.4438 17.3258 27.0488 17.7607 27.7504 17.8613L34.9043 18.8911C36.6719 19.1463 37.3752 21.2885 36.0961 22.5159L30.9228 27.4868C30.4144 27.9756 30.183 28.6783 30.3033 29.3684L31.5241 36.3862C31.8248 38.1222 29.9771 39.4467 28.3972 38.6254L22.0031 35.3097C21.3763 34.9844 20.6255 34.9844 19.9969 35.3097L13.6028 38.6254C12.0229 39.4467 10.1752 38.1222 10.4777 36.3862L11.6967 29.3684C11.817 28.6783 11.5856 27.9756 11.0772 27.4868L5.90394 22.5159C4.62475 21.2885 5.32812 19.1463 7.09566 18.8911L14.2496 17.8613C14.9512 17.7607 15.558 17.3258 15.8714 16.6986L19.0676 10.3098C19.8584 8.73008 22.1416 8.73008 22.9324 10.3098Z" stroke="#130F26" stroke-width="3.5" stroke-linecap="round" stroke-linejoin="round"/>
</svg>
