<svg width="47" height="46" viewBox="0 0 47 46" fill="none" xmlns="http://www.w3.org/2000/svg">
<path fill-rule="evenodd" clip-rule="evenodd" d="M23.5 0C10.5213 0 0 10.2975 0 23C0 35.7025 10.5213 46 23.5 46C36.4787 46 47 35.7025 47 23C47 10.2975 36.4787 0 23.5 0ZM25.4134 30.2605C25.1817 30.4996 24.7293 30.5479 24.7293 30.5479H23.2311C23.2311 30.5479 19.9258 30.7387 17.014 27.8271C13.8386 24.6504 11.0348 18.3478 11.0348 18.3478C11.0348 18.3478 10.8729 17.9344 11.0482 17.7353C11.2456 17.5104 11.7838 17.4962 11.7838 17.4962L15.365 17.4738C15.365 17.4738 15.7022 17.5268 15.9437 17.6976C16.1435 17.839 16.2551 18.1016 16.2551 18.1016C16.2551 18.1016 16.8338 19.508 17.6 20.7801C19.097 23.2641 19.7934 23.8071 20.301 23.5409C21.0415 23.1534 20.8196 20.0298 20.8196 20.0298C20.8196 20.0298 20.833 18.8967 20.4468 18.3914C20.1477 18.0003 19.5837 17.8861 19.3349 17.8543C19.1326 17.8284 19.4636 17.3784 19.8927 17.177C20.5376 16.8743 21.6753 16.8567 23.0202 16.8696C24.0685 16.8802 24.3701 16.9426 24.7796 17.038C25.7299 17.2584 25.7003 17.9645 25.6362 19.4884C25.6171 19.9441 25.5949 20.473 25.5949 21.0839C25.5949 21.2212 25.5907 21.3676 25.5864 21.5181C25.5642 22.2988 25.5387 23.1928 26.0742 23.5256C26.3489 23.6952 27.0195 23.5503 28.6979 20.813C29.4936 19.515 30.0894 17.9897 30.0894 17.9897C30.0894 17.9897 30.2206 17.7177 30.4229 17.6011C30.6301 17.4821 30.9096 17.5186 30.9096 17.5186L34.6784 17.4962C34.6784 17.4962 35.8112 17.3655 35.9939 17.8578C36.1864 18.3725 35.5709 19.5763 34.0311 21.548C32.572 23.4167 31.8611 24.1061 31.9245 24.7148C31.971 25.1607 32.4331 25.5634 33.3212 26.3548C35.1722 28.0058 35.6684 28.8745 35.7876 29.0832C35.7974 29.1005 35.8047 29.1132 35.81 29.1215C36.64 30.4443 34.8893 30.5479 34.8893 30.5479L31.541 30.5927C31.541 30.5927 30.8226 30.7293 29.8761 30.105C29.3803 29.7783 28.8958 29.2447 28.4344 28.7364C27.7296 27.9602 27.0786 27.2431 26.523 27.4125C25.59 27.6975 25.6182 29.628 25.6182 29.628C25.6182 29.628 25.6255 30.0414 25.4134 30.2605Z" fill="white"/>
</svg>
