<svg width="46" height="46" viewBox="0 0 46 46" fill="none" xmlns="http://www.w3.org/2000/svg">
<path fill-rule="evenodd" clip-rule="evenodd" d="M23 0C10.2975 0 0 10.2975 0 23C0 35.7025 10.2975 46 23 46C35.7025 46 46 35.7025 46 23C46 10.2975 35.7025 0 23 0ZM32.5849 15.0931C33.6405 15.3828 34.4718 16.2363 34.754 17.3202C35.2667 19.2846 35.2667 23.3833 35.2667 23.3833C35.2667 23.3833 35.2667 27.4819 34.754 29.4465C34.4718 30.5304 33.6405 31.3839 32.5849 31.6737C30.6718 32.2 23 32.2 23 32.2C23 32.2 15.3282 32.2 13.415 31.6737C12.3594 31.3839 11.528 30.5304 11.2459 29.4465C10.7333 27.4819 10.7333 23.3833 10.7333 23.3833C10.7333 23.3833 10.7333 19.2846 11.2459 17.3202C11.528 16.2363 12.3594 15.3828 13.415 15.0931C15.3282 14.5667 23 14.5667 23 14.5667C23 14.5667 30.6718 14.5667 32.5849 15.0931Z" fill="white"/>
<path d="M20.7 27.5998V19.9331L26.8333 23.7666L20.7 27.5998Z" fill="white"/>
</svg>
